<?xml version="1.0" encoding="UTF-8" standalone="no"?>
<svg width="40px" height="40px" viewBox="0 0 40 40" version="1.1" xmlns="http://www.w3.org/2000/svg" xmlns:xlink="http://www.w3.org/1999/xlink">
    <!-- Generator: Sketch 39.1 (31720) - http://www.bohemiancoding.com/sketch -->
    <title>logo</title>
    <desc>Created with Sketch.</desc>
    <defs>
        <path d="M28.6765002,8.10884598 C28.6226897,8.00538406 28.5397339,7.85683337 28.4268692,7.6694274 C28.2547875,7.38369466 28.051561,7.07237939 27.8162348,6.74176219 C27.1564736,5.81484244 26.3592752,4.89335564 25.4141725,4.03035635 C22.6719486,1.52635629 19.2449512,-5.5067062e-13 15.1740696,-5.5067062e-13 C10.7840362,-5.5067062e-13 6.88553488,1.8249874 4.06490624,4.95133553 C1.48600175,7.80975976 -4.61852778e-14,11.5755093 -4.61852778e-14,15.2312583 C-4.61852778e-14,18.8850211 1.47171454,22.6870875 4.02491157,25.5829289 C6.84501263,28.7814934 10.7536008,30.6553174 15.1740696,30.6553174 C19.2847613,30.6553174 22.7286164,29.0789108 25.4662786,26.4969162 C26.4077708,25.6089586 27.199263,24.6615435 27.8522221,23.70903 C28.0848449,23.3696881 28.2853644,23.0503151 28.4548222,22.7573546 C28.5657469,22.5655868 28.6470031,22.4138763 28.6994301,22.3086272 C29.4110438,20.8800359 28.8341669,19.1428828 27.4109395,18.4285871 C25.9877122,17.7142915 24.2570816,18.2933425 23.5454679,19.7219338 C23.5453739,19.7221226 23.520744,19.7681081 23.4715734,19.8531148 C23.3742056,20.0214452 23.2520023,20.2160819 23.1051608,20.430289 C22.6739363,21.0593441 22.14415,21.6934975 21.5205161,22.2816706 C19.7863896,23.9171922 17.7020334,24.8712953 15.1740696,24.8712953 C12.4531819,24.8712953 10.0959416,23.741206 8.34003441,21.7496524 C6.70817764,19.898797 5.76230492,17.4552044 5.76230492,15.2312583 C5.76230492,13.0299469 6.70448156,10.6423311 8.33605414,8.83391727 C10.0897362,6.89015884 12.4526431,5.78402215 15.1740696,5.78402215 C17.6998267,5.78402215 19.792037,6.71587528 21.5366078,8.30889091 C22.1618833,8.87984711 22.6938416,9.4947412 23.1276427,10.1042023 C23.2750634,10.3113184 23.3977954,10.499327 23.4955873,10.6617053 C23.5262925,10.7126898 23.5507925,10.7549614 23.5690747,10.7876997 C23.5750348,10.7983725 23.57481,10.7979552 23.5683978,10.7856264 C24.3047949,12.2015061 26.0452504,12.7500857 27.4558139,12.0109132 C28.8663774,11.2717407 29.4128973,9.52472569 28.6765002,8.10884598 L28.6765002,8.10884598 Z" id="path-1"></path>
        <filter x="-50%" y="-50%" width="200%" height="200%" filterUnits="objectBoundingBox" id="filter-3">
            <feGaussianBlur stdDeviation="1.5" in="SourceAlpha" result="shadowBlurInner1"></feGaussianBlur>
            <feOffset dx="0" dy="1" in="shadowBlurInner1" result="shadowOffsetInner1"></feOffset>
            <feComposite in="shadowOffsetInner1" in2="SourceAlpha" operator="arithmetic" k2="-1" k3="1" result="shadowInnerInner1"></feComposite>
            <feColorMatrix values="0 0 0 0 1   0 0 0 0 0.742199488   0 0 0 0 0.0117647059  0 0 0 1 0" type="matrix" in="shadowInnerInner1"></feColorMatrix>
        </filter>
        <path d="M14.2136855,35.0897344 C22.4880116,35.0897344 28.6194478,29.4503128 27.27491,21.5454825 C25.9303721,13.6406522 21.7197043,4.14521588 13.4453782,4.14521588 C5.17105201,4.14521588 -1.15246098,9.35083581 0.288115246,18.798072 C1.72869148,28.2453082 5.93935933,35.0897344 14.2136855,35.0897344 Z" id="path-4"></path>
        <filter x="-50%" y="-50%" width="200%" height="200%" filterUnits="objectBoundingBox" id="filter-5">
            <feGaussianBlur stdDeviation="2.5" in="SourceAlpha" result="shadowBlurInner1"></feGaussianBlur>
            <feOffset dx="0" dy="1" in="shadowBlurInner1" result="shadowOffsetInner1"></feOffset>
            <feComposite in="shadowOffsetInner1" in2="SourceAlpha" operator="arithmetic" k2="-1" k3="1" result="shadowInnerInner1"></feComposite>
            <feColorMatrix values="0 0 0 0 0   0 0 0 0 0   0 0 0 0 0  0 0 0 0.5 0" type="matrix" in="shadowInnerInner1"></feColorMatrix>
        </filter>
        <path d="M17.2869148,29.6913137 C24.0761054,29.6913137 29.3877551,24.3410932 30.30012,17.6412676 C31.212485,10.9414419 18.2472989,13.5442519 14.6458583,8.72423341 C11.0444178,3.90421495 4.9939976,10.5372884 4.9939976,17.3520665 C4.9939976,24.1668445 10.4977241,29.6913137 17.2869148,29.6913137 Z" id="path-6"></path>
        <filter x="-50%" y="-50%" width="200%" height="200%" filterUnits="objectBoundingBox" id="filter-7">
            <feGaussianBlur stdDeviation="2.5" in="SourceAlpha" result="shadowBlurInner1"></feGaussianBlur>
            <feOffset dx="0" dy="1" in="shadowBlurInner1" result="shadowOffsetInner1"></feOffset>
            <feComposite in="shadowOffsetInner1" in2="SourceAlpha" operator="arithmetic" k2="-1" k3="1" result="shadowInnerInner1"></feComposite>
            <feColorMatrix values="0 0 0 0 0   0 0 0 0 0   0 0 0 0 0  0 0 0 0.5 0" type="matrix" in="shadowInnerInner1"></feColorMatrix>
        </filter>
    </defs>
    <g id="Symbols" stroke="none" stroke-width="1" fill="none" fill-rule="evenodd">
        <g id="logo">
            <g id="CK">
                <g id="C" transform="translate(19.896853, 19.686312) rotate(-69.000000) translate(-19.896853, -19.686312) translate(4.896853, 4.186312)">
                    <mask id="mask-2" fill="white">
                        <use xlink:href="#path-1"></use>
                    </mask>
                    <g id="Mask">
                        <use fill="#FFE902" fill-rule="evenodd" xlink:href="#path-1"></use>
                        <use fill="black" fill-opacity="1" filter="url(#filter-3)" xlink:href="#path-1"></use>
                    </g>
                    <g id="Oval-4" mask="url(#mask-2)">
                        <use fill="#FACA1A" fill-rule="evenodd" xlink:href="#path-4"></use>
                        <use fill="black" fill-opacity="1" filter="url(#filter-5)" xlink:href="#path-4"></use>
                    </g>
                    <g id="Oval-3" mask="url(#mask-2)">
                        <use fill="#F9AE03" fill-rule="evenodd" xlink:href="#path-6"></use>
                        <use fill="black" fill-opacity="1" filter="url(#filter-7)" xlink:href="#path-6"></use>
                    </g>
                </g>
                <g id="K" transform="translate(12.716687, 5.901138)" fill="#F86304">
                    <path d="M21.4114272,10.0275279 C22.8841728,9.42277032 23.589657,7.73412163 22.9871701,6.25582543 C22.3846832,4.77752923 20.7023749,4.06938623 19.2296293,4.67414376 L9.04216818,8.8574485 L5.5627328,1.71239562 C4.86065474,0.279058498 3.13392147,-0.31159907 1.7059661,0.393125013 C0.278010719,1.0978491 -0.310429111,2.83109016 0.391648949,4.26442727 L5.04777261,13.8117643 C5.18155491,14.0911493 5.35525382,14.3399806 5.55906529,14.5541314 C6.36592515,15.402845 7.63555411,15.6960895 8.75563292,15.2244109 L21.4114272,10.0275279 Z" id="Shape"></path>
                </g>
            </g>
        </g>
    </g>
</svg>